<?xml version="1.0" encoding="utf-8"?>
<!-- Generator: Adobe Illustrator 17.0.0, SVG Export Plug-In . SVG Version: 6.00 Build 0)  Created for Wikipedia-->
<!DOCTYPE svg PUBLIC "-//W3C//DTD SVG 1.1//EN" "http://www.w3.org/Graphics/SVG/1.1/DTD/svg11.dtd">
<svg version="1.1" id="svg_1" xmlns="http://www.w3.org/2000/svg" xmlns:xlink="http://www.w3.org/1999/xlink" x="0px" y="0px"
	 width="209.443px" height="300px" viewBox="0 0 209.443 300" enable-background="new 0 0 209.443 300" xml:space="preserve">
<path fill="#010101" d="M115.942,188.19l8.561,2.25l0.892-3.44l-8.547-2.236l0.466-1.806c0.519-1.985,1.329-2.286,3.118-1.817
	l6.888,1.803l0.914-3.487l-7.096-1.856c-3.286-0.864-6.343-0.089-7.422,3.999l-3.136,11.991c-0.236,0.874,0.212,1.537,1.021,1.752
	l2.311,0.602L115.942,188.19z M97.637,179.059l-0.717-3.534l-11.815,2.408c-0.817,0.158-1.315,0.799-1.132,1.699l2.48,12.145
	c0.842,4.136,3.845,5.078,7.174,4.397l7.196-1.462l-0.724-3.526l-6.974,1.419c-1.806,0.358-2.605,0.021-3.014-1.996l-0.365-1.817
	l8.679-1.763l-0.706-3.48l-8.687,1.759l-0.874-4.322L97.637,179.059z M68.821,203.409c-1.379-0.15-2.236-0.731-3.54-2.336
	l-6.691-8.224l-2.964,2.412l7.307,8.991c1.541,1.874,3.264,2.874,5.307,3.068c2.297,0.211,4.34-0.466,6.368-2.111
	c2.018-1.649,3.11-3.505,3.369-5.798c0.233-2.039-0.394-3.935-1.921-5.82l-7.307-8.984L65.782,187l6.68,8.231
	c1.315,1.605,1.695,2.566,1.562,3.938c-0.097,1.132-0.774,2.261-1.806,3.093C71.194,203.108,69.936,203.545,68.821,203.409
	 M146.531,189.569c0.881,0.688,0.82,1.39,0.598,2.071l-5.551,19.294l-3.154-2.895l1.068-3.716l-3.705-2.853l3.215-2.075l1.559,1.208
	l1.921-6.608l-12.12,7.859l-3.558-1.992l16.818-10.919c0.613-0.391,1.261-0.624,2.154,0.057L146.531,189.569z M72.222,216.822
	l-2.258-1.982c8.325-9.489,20.545-15.485,34.155-15.485c13.618,0,25.831,5.995,34.151,15.485l-2.247,1.982
	c-7.773-8.866-19.176-14.467-31.905-14.467C91.405,202.356,79.995,207.957,72.222,216.822 M51.165,193.056l-2.143-2.093
	c13.987-14.32,33.503-23.2,55.098-23.2c21.598,0,41.122,8.88,55.105,23.2l-2.143,2.093c-13.438-13.757-32.202-22.304-52.962-22.304
	C83.363,170.752,64.603,179.299,51.165,193.056"/>
<path fill="#010101" d="M114.274,290.819h7.54v1.745c-1.222,1.362-3.175,2.408-5.587,2.408c-4.222,0-7.4-2.476-7.4-7.608
	s3.458-7.611,6.773-7.611c3.039,0,4.992,1.466,5.795,4.189l5.343-1.57c-1.258-4.573-4.82-7.647-11.066-7.647
	c-6.705,0-12.428,4.82-12.428,12.639c0,7.819,5.655,12.636,12.496,12.636c5.307,0,8.586-2.093,11.277-5.375v-8.17h-12.743V290.819z"
	/>
<polygon fill="#010101" points="63.377,289.765 73.773,289.765 73.773,284.741 63.377,284.741 63.377,280.172 74.679,280.172 
	74.679,275.148 57.793,275.148 57.793,299.566 74.959,299.566 74.959,294.542 63.377,294.542 "/>
<polygon fill="#010101" points="43.588,275.148 38.005,275.148 38.005,299.567 55.17,299.567 55.17,294.543 43.588,294.543 "/>
<path fill="#010101" d="M87.449,275.151l-9.908,24.415h6.314l1.781-4.637h9.557l1.778,4.637h6.314l-9.905-24.415H87.449z
	 M87.553,289.904l2.863-7.5l2.86,7.5H87.553z"/>
<path fill="#010101" d="M144.678,289.66c0,3.279-1.677,5.304-4.745,5.304c-3.071,0-4.745-2.025-4.745-5.304v-14.51h-5.58v14.822
	c0,6.805,4.709,10.013,10.324,10.013s10.328-3.243,10.328-10.013V275.15h-5.583V289.66z"/>
<polygon fill="#010101" points="159.007,294.541 159.007,289.764 169.403,289.764 169.403,284.74 159.007,284.74 159.007,280.171 
	170.31,280.171 170.31,275.147 153.424,275.147 153.424,299.565 170.589,299.565 170.589,294.541 "/>
<path fill="#010101" d="M55.343,248.083c0,5.125-2.616,8.285-7.411,8.285c-4.795,0-7.411-3.161-7.411-8.285v-22.67h-8.719v23.161
	c0,10.629,7.357,15.639,16.13,15.639s16.13-5.067,16.13-15.639v-23.161h-8.719V248.083z"/>
<polygon fill="#010101" points="8.719,248.247 24.956,248.247 24.956,240.399 8.719,240.399 8.719,233.26 26.375,233.26 
	26.375,225.412 0,225.412 0,263.56 26.812,263.56 26.812,255.711 8.719,255.711 "/>
<path fill="#010101" d="M193.965,225.412h-9.263l-15.478,38.147h9.866l2.781-7.246H196.8l2.781,7.246h9.862L193.965,225.412z
	 M184.867,248.465l4.469-11.718l4.469,11.718H184.867z"/>
<path fill="#010101" d="M173.08,238.057c0-8.285-6.16-12.643-13.682-12.643h-14.929v38.147h8.719V250.7h6.21
	C166.919,250.7,173.08,246.342,173.08,238.057 M158.964,242.852h-5.777v-9.59h5.777c3.87,0,5.397,2.014,5.397,4.795
	C164.361,240.834,162.834,242.852,158.964,242.852"/>
<path fill="#010101" d="M98.397,237.622c0-7.468-6.049-12.209-13.786-12.209H69.459v38.147h8.719v-13.732h4.687l7.63,13.732h9.808
	l-8.5-15.313C95.673,246.069,98.397,242.632,98.397,237.622 M84.718,241.98h-6.54v-8.719h6.54c3.598,0,4.96,1.853,4.96,4.361
	C89.678,240.127,88.316,241.98,84.718,241.98"/>
<path fill="#010101" d="M120.964,224.54c-11.22,0-18.459,7.572-18.459,19.932c0,12.363,7.239,19.932,18.459,19.932
	c11.216,0,18.459-7.569,18.459-19.932C139.423,232.112,132.181,224.54,120.964,224.54 M120.964,256.563
	c-5.447,0-9.747-3.92-9.747-12.091c0-8.167,4.3-12.087,9.747-12.087c5.447,0,9.747,3.92,9.747,12.087
	C130.712,252.642,126.411,256.563,120.964,256.563"/>
<path fill="#010101" d="M136.846,14.904l-0.007-0.007c0.021-0.036,0.036-0.079,0.036-0.129c0-0.108-0.061-0.194-0.143-0.251
	l0.007-0.003L114.112,1.57l-0.003,0.007c-0.047-0.021-0.09-0.043-0.147-0.043c-0.154,0-0.272,0.107-0.301,0.258h-0.007
	c-1.168,4.927-11.715,52.89,5.257,110.113C112.822,74.374,127.486,33.231,136.846,14.904"/>
<path fill="#010101" d="M109.811,149.901v0.004c5.053-0.358,9.955-1.258,14.66-2.63v-0.007c0.111-0.05,0.186-0.158,0.186-0.28
	c0-0.054-0.011-0.093-0.032-0.129l0.014-0.007c-6.074-6.483-15.413-19.825-21.684-31.901c3.175,12.984,5.956,27.239,6.583,34.707
	C109.567,149.787,109.674,149.894,109.811,149.901"/>
<path fill="#707070" d="M129.843,145.526C98.161,94.495,103.174,22.379,106.74,0.322h-0.014c0-0.007,0.007-0.007,0.007-0.014
	c0-0.172-0.136-0.308-0.308-0.308c-0.036,0-0.065,0.007-0.093,0.021l-0.004-0.007c-4.039,1.62-32.052,12.872-35.04,14.076
	c-0.129,0.043-0.219,0.154-0.219,0.29c0,0.025,0.011,0.047,0.014,0.068H71.08C76.735,40.333,91.248,101.627,129.843,145.526"/>
<path fill="#707070" d="M86.572,147.369h0.004c-0.004,0.022-0.014,0.043-0.014,0.065c0,0.129,0.086,0.237,0.197,0.29
	c5.458,1.455,11.185,2.261,17.083,2.347c0.158-0.007,0.287-0.136,0.294-0.287h0.004c-0.753-12.406-3.616-37.961-14.148-60.577
	C93.413,112.15,89.661,136.034,86.572,147.369"/>
<path fill="#F08901" d="M78.371,144.903c0.115,0,0.211-0.068,0.262-0.161l0.014,0.011c0.097-0.448,0.294-1.311,0.391-1.727
	l-0.014-0.011c0.007-0.014,0.014-0.032,0.014-0.054c0-0.136-0.097-0.254-0.222-0.287l0.004-0.011
	c-22.838-9.783-37.997-36.18-37.997-62.548c0-20.602,8.823-43.071,24.006-54.789v-0.007c0.058-0.054,0.09-0.129,0.09-0.215
	c0-0.021-0.004-0.036-0.011-0.057l0.018-0.007c-0.093-0.348-0.283-1.164-0.391-1.677c-0.039-0.129-0.154-0.222-0.29-0.222
	c-0.068,0-0.126,0.021-0.179,0.057C46.327,35.883,34.748,56.643,34.748,80.115c0,29.271,18.004,54.334,43.533,64.773
	C78.307,144.896,78.339,144.903,78.371,144.903"/>
<path fill="#EE8A00" d="M143.112,21.631l-0.007,0.007c-0.032-0.018-0.068-0.025-0.118-0.025c-0.107,0-0.204,0.068-0.258,0.154
	l-0.71,1.537c-0.025,0.043-0.039,0.089-0.039,0.136c0,0.097,0.047,0.172,0.122,0.233l-0.003,0.014
	c16.932,11.525,26.529,34.449,26.529,56.427c0,24.472-11.891,49.009-32.141,59.764l0.007,0.007c-0.061,0.061-0.1,0.136-0.1,0.226
	c0,0.043,0.011,0.082,0.025,0.122h-0.003l0.86,1.494h0.007c0.061,0.075,0.143,0.126,0.24,0.126c0.054,0,0.1-0.014,0.14-0.039
	c22.032-11.776,37.033-34.98,37.033-61.699C174.694,55.651,162.13,34.135,143.112,21.631"/>
<polygon fill="#010101" points="156.986,143.595 158.691,143.595 158.691,148.358 159.469,148.358 159.469,143.595 161.175,143.595 
	161.175,142.929 156.986,142.929 "/>
<polygon fill="#010101" points="166.603,142.928 164.797,147.652 162.991,142.928 162.12,142.928 162.12,148.358 162.897,148.358 
	162.897,144.462 164.385,148.358 165.209,148.358 166.696,144.462 166.696,148.358 167.474,148.358 167.474,142.928 "/>
</svg>
