<?xml version="1.0" encoding="UTF-8" standalone="no"?>
<!-- Created with Inkscape (http://www.inkscape.org/) -->

<svg
   width="103.21201mm"
   height="147.53761mm"
   viewBox="0 0 103.21201 147.53761"
   version="1.1"
   id="svg1"
   xmlns="http://www.w3.org/2000/svg"
   xmlns:svg="http://www.w3.org/2000/svg">
  <defs
     id="defs1">
    <clipPath
       clipPathUnits="userSpaceOnUse"
       id="clipPath3">
      <path
         d="M 0,1207.558 H 858.898 V 0 H 0 Z"
         transform="translate(-307.58011,-434.2114)"
         id="path3" />
    </clipPath>
    <clipPath
       clipPathUnits="userSpaceOnUse"
       id="clipPath5">
      <path
         d="M 0,1207.558 H 858.898 V 0 H 0 Z"
         transform="translate(-329.46771,-442.04485)"
         id="path5" />
    </clipPath>
    <clipPath
       clipPathUnits="userSpaceOnUse"
       id="clipPath7">
      <path
         d="M 0,1207.558 H 858.898 V 0 H 0 Z"
         transform="translate(-371.83361,-437.35622)"
         id="path7" />
    </clipPath>
    <clipPath
       clipPathUnits="userSpaceOnUse"
       id="clipPath9">
      <path
         d="M 0,1207.558 H 858.898 V 0 H 0 Z"
         transform="translate(-397.21111,-428.65442)"
         id="path9" />
    </clipPath>
    <clipPath
       clipPathUnits="userSpaceOnUse"
       id="clipPath11">
      <path
         d="M 0,1207.558 H 858.898 V 0 H 0 Z"
         transform="translate(-426.25081,-456.61221)"
         id="path11" />
    </clipPath>
    <clipPath
       clipPathUnits="userSpaceOnUse"
       id="clipPath13">
      <path
         d="M 0,1207.558 H 858.898 V 0 H 0 Z"
         transform="translate(-456.73501,-422.81515)"
         id="path13" />
    </clipPath>
    <clipPath
       clipPathUnits="userSpaceOnUse"
       id="clipPath15">
      <path
         d="M 0,1207.558 H 858.898 V 0 H 0 Z"
         transform="translate(-462.50851,-437.57995)"
         id="path15" />
    </clipPath>
    <clipPath
       clipPathUnits="userSpaceOnUse"
       id="clipPath17">
      <path
         d="M 0,1207.558 H 858.898 V 0 H 0 Z"
         transform="translate(-503.43282,-428.65442)"
         id="path17" />
    </clipPath>
    <clipPath
       clipPathUnits="userSpaceOnUse"
       id="clipPath19">
      <path
         d="M 0,1207.558 H 858.898 V 0 H 0 Z"
         transform="translate(-530.03101,-442.04485)"
         id="path19" />
    </clipPath>
    <clipPath
       clipPathUnits="userSpaceOnUse"
       id="clipPath21">
      <path
         d="M 0,1207.558 H 858.898 V 0 H 0 Z"
         transform="translate(-564.29161,-428.65442)"
         id="path21" />
    </clipPath>
    <clipPath
       clipPathUnits="userSpaceOnUse"
       id="clipPath23">
      <path
         d="M 0,1207.558 H 858.898 V 0 H 0 Z"
         transform="translate(-313.79361,-405.84865)"
         id="path23" />
    </clipPath>
    <clipPath
       clipPathUnits="userSpaceOnUse"
       id="clipPath25">
      <path
         d="M 0,1207.558 H 858.898 V 0 H 0 Z"
         transform="translate(-335.83041,-385.53414)"
         id="path25" />
    </clipPath>
    <clipPath
       clipPathUnits="userSpaceOnUse"
       id="clipPath27">
      <path
         d="M 0,1207.558 H 858.898 V 0 H 0 Z"
         transform="translate(-362.72681,-388.20219)"
         id="path27" />
    </clipPath>
    <clipPath
       clipPathUnits="userSpaceOnUse"
       id="clipPath29">
      <path
         d="M 0,1207.558 H 858.898 V 0 H 0 Z"
         transform="translate(-381.06181,-387.61742)"
         id="path29" />
    </clipPath>
    <clipPath
       clipPathUnits="userSpaceOnUse"
       id="clipPath31">
      <path
         d="M 0,1207.558 H 858.898 V 0 H 0 Z"
         transform="translate(-414.96121,-409.54015)"
         id="path31" />
    </clipPath>
    <clipPath
       clipPathUnits="userSpaceOnUse"
       id="clipPath33">
      <path
         d="M 0,1207.558 H 858.898 V 0 H 0 Z"
         transform="translate(-418.12211,-385.86302)"
         id="path33" />
    </clipPath>
    <clipPath
       clipPathUnits="userSpaceOnUse"
       id="clipPath35">
      <path
         d="M 0,1207.558 H 858.898 V 0 H 0 Z"
         transform="translate(-458.95581,-385.53414)"
         id="path35" />
    </clipPath>
    <clipPath
       clipPathUnits="userSpaceOnUse"
       id="clipPath37">
      <path
         d="M 0,1207.558 H 858.898 V 0 H 0 Z"
         id="path37" />
    </clipPath>
    <clipPath
       clipPathUnits="userSpaceOnUse"
       id="clipPath39">
      <path
         d="M 0,1207.558 H 858.898 V 0 H 0 Z"
         transform="translate(-501.68431,-399.67022)"
         id="path39" />
    </clipPath>
    <clipPath
       clipPathUnits="userSpaceOnUse"
       id="clipPath41">
      <path
         d="M 0,1207.558 H 858.898 V 0 H 0 Z"
         id="path41" />
    </clipPath>
    <clipPath
       clipPathUnits="userSpaceOnUse"
       id="clipPath43">
      <path
         d="M 0,1207.558 H 858.898 V 0 H 0 Z"
         transform="translate(-553.34851,-392.32209)"
         id="path43" />
    </clipPath>
    <clipPath
       clipPathUnits="userSpaceOnUse"
       id="clipPath45">
      <path
         d="M 0,1207.558 H 858.898 V 0 H 0 Z"
         transform="translate(-565.84861,-378.27962)"
         id="path45" />
    </clipPath>
    <linearGradient
       x1="0"
       y1="0"
       x2="1"
       y2="0"
       gradientUnits="userSpaceOnUse"
       gradientTransform="matrix(214.97083,164.48976,164.48976,-214.97083,380.27292,476.32419)"
       spreadMethod="pad"
       id="linearGradient52">
      <stop
         style="stop-opacity:1;stop-color:#5eafe2"
         offset="0"
         id="stop45" />
      <stop
         style="stop-opacity:1;stop-color:#5eafe2"
         offset="0.0293065"
         id="stop46" />
      <stop
         style="stop-opacity:1;stop-color:#0085cb"
         offset="0.21439"
         id="stop47" />
      <stop
         style="stop-opacity:1;stop-color:#0085cb"
         offset="0.35614365"
         id="stop48" />
      <stop
         style="stop-opacity:1;stop-color:#2e4a9b"
         offset="0.494529"
         id="stop49" />
      <stop
         style="stop-opacity:1;stop-color:#2e4a9b"
         offset="0.49693187"
         id="stop50" />
      <stop
         style="stop-opacity:1;stop-color:#373f93"
         offset="0.66403"
         id="stop51" />
      <stop
         style="stop-opacity:1;stop-color:#373f93"
         offset="1"
         id="stop52" />
    </linearGradient>
    <linearGradient
       x1="0"
       y1="0"
       x2="1"
       y2="0"
       gradientUnits="userSpaceOnUse"
       gradientTransform="matrix(-215.92853,-165.22256,-165.22256,215.92853,595.78979,642.08472)"
       spreadMethod="pad"
       id="linearGradient59">
      <stop
         style="stop-opacity:1;stop-color:#5eafe2"
         offset="0"
         id="stop53" />
      <stop
         style="stop-opacity:1;stop-color:#5eafe2"
         offset="0.0293065"
         id="stop54" />
      <stop
         style="stop-opacity:1;stop-color:#0085cb"
         offset="0.303937"
         id="stop55" />
      <stop
         style="stop-opacity:1;stop-color:#0085cb"
         offset="0.53802415"
         id="stop56" />
      <stop
         style="stop-opacity:1;stop-color:#2e4a9b"
         offset="0.766549"
         id="stop57" />
      <stop
         style="stop-opacity:1;stop-color:#2e4a9b"
         offset="0.76985844"
         id="stop58" />
      <stop
         style="stop-opacity:1;stop-color:#373f93"
         offset="1"
         id="stop59" />
    </linearGradient>
    <linearGradient
       x1="0"
       y1="0"
       x2="1"
       y2="0"
       gradientUnits="userSpaceOnUse"
       gradientTransform="matrix(-202.13927,-180.02519,-180.02519,202.13927,467.9953,797.24823)"
       spreadMethod="pad"
       id="linearGradient67">
      <stop
         style="stop-opacity:1;stop-color:#5eafe2"
         offset="0"
         id="stop60" />
      <stop
         style="stop-opacity:1;stop-color:#5eafe2"
         offset="0.0206864"
         id="stop61" />
      <stop
         style="stop-opacity:1;stop-color:#0085cb"
         offset="0.224823"
         id="stop62" />
      <stop
         style="stop-opacity:1;stop-color:#0085cb"
         offset="0.37108825"
         id="stop63" />
      <stop
         style="stop-opacity:1;stop-color:#373f93"
         offset="0.513878"
         id="stop64" />
      <stop
         style="stop-opacity:1;stop-color:#2e4a9b"
         offset="0.627885"
         id="stop65" />
      <stop
         style="stop-opacity:1;stop-color:#2e4a9b"
         offset="0.63316016"
         id="stop66" />
      <stop
         style="stop-opacity:1;stop-color:#2e4a9b"
         offset="1"
         id="stop67" />
    </linearGradient>
    <linearGradient
       x1="0"
       y1="0"
       x2="1"
       y2="0"
       gradientUnits="userSpaceOnUse"
       gradientTransform="matrix(208.91602,0,0,-208.91602,284.00861,683.4447)"
       spreadMethod="pad"
       id="linearGradient74">
      <stop
         style="stop-opacity:1;stop-color:#5eafe2"
         offset="0"
         id="stop68" />
      <stop
         style="stop-opacity:1;stop-color:#5eafe2"
         offset="0.0293065"
         id="stop69" />
      <stop
         style="stop-opacity:1;stop-color:#0085cb"
         offset="0.303937"
         id="stop70" />
      <stop
         style="stop-opacity:1;stop-color:#0085cb"
         offset="0.53802415"
         id="stop71" />
      <stop
         style="stop-opacity:1;stop-color:#2e4a9b"
         offset="0.766549"
         id="stop72" />
      <stop
         style="stop-opacity:1;stop-color:#2e4a9b"
         offset="0.76985844"
         id="stop73" />
      <stop
         style="stop-opacity:1;stop-color:#373f93"
         offset="1"
         id="stop74" />
    </linearGradient>
    <clipPath
       clipPathUnits="userSpaceOnUse"
       id="clipPath76">
      <path
         d="M 0,1207.558 H 858.898 V 0 H 0 Z"
         transform="translate(-420.24691,-771.71232)"
         id="path76" />
    </clipPath>
    <clipPath
       clipPathUnits="userSpaceOnUse"
       id="clipPath78">
      <path
         d="M 0,1207.558 H 858.898 V 0 H 0 Z"
         transform="translate(-353.46781,-729.79722)"
         id="path78" />
    </clipPath>
    <clipPath
       clipPathUnits="userSpaceOnUse"
       id="clipPath80">
      <path
         d="M 0,1207.558 H 858.898 V 0 H 0 Z"
         transform="translate(-387.39471,-757.92132)"
         id="path80" />
    </clipPath>
    <clipPath
       clipPathUnits="userSpaceOnUse"
       id="clipPath82">
      <path
         d="M 0,1207.558 H 858.898 V 0 H 0 Z"
         transform="translate(-333.32031,-700.91602)"
         id="path82" />
    </clipPath>
    <clipPath
       clipPathUnits="userSpaceOnUse"
       id="clipPath84">
      <path
         d="M 0,1207.558 H 858.898 V 0 H 0 Z"
         transform="translate(-305.03121,-620.14532)"
         id="path84" />
    </clipPath>
    <clipPath
       clipPathUnits="userSpaceOnUse"
       id="clipPath86">
      <path
         d="M 0,1207.558 H 858.898 V 0 H 0 Z"
         transform="translate(-438.77931,-498.20761)"
         id="path86" />
    </clipPath>
    <clipPath
       clipPathUnits="userSpaceOnUse"
       id="clipPath88">
      <path
         d="M 0,1207.558 H 858.898 V 0 H 0 Z"
         transform="translate(-466.52121,-505.75941)"
         id="path88" />
    </clipPath>
    <clipPath
       clipPathUnits="userSpaceOnUse"
       id="clipPath90">
      <path
         d="M 0,1207.558 H 858.898 V 0 H 0 Z"
         transform="translate(-500.06011,-526.30712)"
         id="path90" />
    </clipPath>
    <clipPath
       clipPathUnits="userSpaceOnUse"
       id="clipPath92">
      <path
         d="M 0,1207.558 H 858.898 V 0 H 0 Z"
         transform="translate(-534.53892,-563.12961)"
         id="path92" />
    </clipPath>
    <clipPath
       clipPathUnits="userSpaceOnUse"
       id="clipPath94">
      <path
         d="M 0,1207.558 H 858.898 V 0 H 0 Z"
         transform="translate(-561.89221,-617.32722)"
         id="path94" />
    </clipPath>
    <linearGradient
       x1="0"
       y1="0"
       x2="1"
       y2="0"
       gradientUnits="userSpaceOnUse"
       gradientTransform="matrix(-286.73752,-189.83061,-189.83061,286.73752,527.45068,704.31134)"
       spreadMethod="pad"
       id="linearGradient98">
      <stop
         style="stop-opacity:1;stop-color:#ffde00"
         offset="0"
         id="stop94" />
      <stop
         style="stop-opacity:1;stop-color:#f9b231"
         offset="0.10867118"
         id="stop95" />
      <stop
         style="stop-opacity:1;stop-color:#f9b231"
         offset="0.386125"
         id="stop96" />
      <stop
         style="stop-opacity:1;stop-color:#ffde00"
         offset="0.6446161"
         id="stop97" />
      <stop
         style="stop-opacity:1;stop-color:#ffde00"
         offset="1"
         id="stop98" />
    </linearGradient>
  </defs>
  <g
     id="layer1"
     transform="translate(-26.722917,-20.37292)">
    <g
       id="group-MC0"
       transform="matrix(0.26458333,0,0,0.26458333,-70.384865,-126.41335)">
      <path
         id="path2"
         d="m 0,0 c -1.073,-2.469 -2.202,-4.5 -3.386,-6.091 -1.184,-1.59 -2.405,-2.834 -3.662,-3.734 -1.259,-0.897 -2.535,-1.514 -3.831,-1.852 -1.295,-0.336 -2.608,-0.504 -3.94,-0.504 -1.257,0 -2.563,0.121 -3.912,0.364 -1.351,0.244 -2.619,0.589 -3.803,1.039 l 1.556,7.018 c 1.826,-0.674 3.636,-1.012 5.427,-1.012 1.155,0 2.264,0.262 3.327,0.787 1.063,0.523 2.081,1.646 3.05,3.368 -1.526,2.395 -2.988,4.857 -4.386,7.383 -1.396,2.527 -2.718,5.015 -3.967,7.467 -1.247,2.45 -2.402,4.808 -3.463,7.073 -1.061,2.264 -2.002,4.332 -2.82,6.203 h 9.605 c 0.594,-1.459 1.253,-3.022 1.978,-4.687 0.724,-1.665 1.494,-3.388 2.312,-5.165 0.815,-1.778 1.642,-3.556 2.476,-5.334 0.837,-1.777 1.644,-3.509 2.424,-5.193 1.189,3.294 2.32,6.663 3.398,10.106 1.077,3.443 2.117,6.868 3.12,10.273 h 9.279 C 9.814,24.628 8.864,21.933 7.933,19.426 7.001,16.917 6.089,14.541 5.196,12.296 4.301,10.05 3.417,7.917 2.542,5.895 1.667,3.874 0.819,1.909 0,0"
         style="fill:#0065b1;fill-opacity:1;fill-rule:nonzero;stroke:none"
         transform="matrix(1.3333333,0,0,-1.3333333,398.76821,1019.7929)"
         clip-path="url(#clipPath3)" />
      <path
         id="path4"
         d="M 0,0 C 0.792,0.787 1.645,1.646 2.557,2.578 3.468,3.509 4.349,4.433 5.205,5.345 6.06,6.259 6.873,7.149 7.642,8.019 8.411,8.888 9.101,9.648 9.716,10.301 H 19.768 C 19.034,9.507 18.12,8.531 17.028,7.372 15.934,6.214 14.776,5.007 13.556,3.753 12.333,2.499 11.102,1.254 9.863,0.021 8.621,-1.215 7.455,-2.309 6.357,-3.257 c 1.107,-0.866 2.286,-1.937 3.541,-3.215 1.253,-1.278 2.482,-2.646 3.687,-4.104 1.205,-1.458 2.352,-2.937 3.441,-4.436 1.09,-1.5 2.021,-2.905 2.797,-4.218 h -9.418 c -0.668,1.014 -1.43,2.072 -2.284,3.18 -0.852,1.107 -1.736,2.198 -2.652,3.274 C 4.554,-11.7 3.62,-10.692 2.665,-9.75 1.712,-8.809 0.822,-7.999 0,-7.32 V -19.23 H -8.274 V 10.301 H 0 Z"
         style="fill:#0065b1;fill-opacity:1;fill-rule:nonzero;stroke:none"
         transform="matrix(1.3333333,0,0,-1.3333333,427.95168,1009.3483)"
         clip-path="url(#clipPath5)" />
      <path
         id="path6"
         d="m 0,0 c 0,2.582 -0.574,4.649 -1.721,6.203 -1.149,1.553 -2.851,2.331 -5.11,2.331 -0.739,0 -1.425,-0.029 -2.054,-0.085 -0.63,-0.056 -1.147,-0.121 -1.554,-0.196 V -6.849 c 0.518,-0.337 1.193,-0.617 2.027,-0.843 0.833,-0.225 1.674,-0.336 2.526,-0.336 C -1.962,-8.028 0,-5.352 0,0 m 8.44,0.224 c 0,-2.283 -0.278,-4.36 -0.833,-6.231 -0.556,-1.872 -1.37,-3.481 -2.443,-4.828 -1.075,-1.348 -2.407,-2.396 -3.997,-3.145 -1.592,-0.748 -3.426,-1.123 -5.497,-1.123 -1.15,0 -2.223,0.113 -3.221,0.338 -1,0.224 -1.964,0.541 -2.888,0.954 v -11.116 h -8.273 v 38.905 c 0.74,0.225 1.591,0.44 2.554,0.646 0.962,0.205 1.971,0.384 3.026,0.534 1.054,0.149 2.128,0.27 3.22,0.364 1.092,0.094 2.139,0.14 3.137,0.14 2.407,0 4.554,-0.364 6.442,-1.093 1.887,-0.731 3.479,-1.76 4.775,-3.088 C 5.737,10.152 6.728,8.534 7.412,6.624 8.098,4.715 8.44,2.582 8.44,0.224"
         style="fill:#0065b1;fill-opacity:1;fill-rule:nonzero;stroke:none"
         transform="matrix(1.3333333,0,0,-1.3333333,484.43955,1015.5998)"
         clip-path="url(#clipPath7)" />
      <path
         id="path8"
         d="m 0,0 c 0.813,0 1.591,0.017 2.332,0.055 0.74,0.037 1.332,0.094 1.776,0.169 V 6.569 C 3.775,6.643 3.275,6.718 2.61,6.792 1.943,6.867 1.332,6.905 0.776,6.905 0,6.905 -0.732,6.858 -1.417,6.765 -2.102,6.671 -2.703,6.493 -3.221,6.231 -3.74,5.969 -4.146,5.614 -4.443,5.165 -4.74,4.715 -4.887,4.153 -4.887,3.481 -4.887,2.17 -4.452,1.263 -3.582,0.757 -2.712,0.253 -1.519,0 0,0 m -0.667,24.477 c 2.443,0 4.478,-0.281 6.108,-0.842 1.629,-0.562 2.933,-1.367 3.914,-2.414 0.981,-1.048 1.676,-2.322 2.084,-3.817 0.406,-1.498 0.609,-3.164 0.609,-4.998 V -4.997 c -1.184,-0.262 -2.832,-0.57 -4.941,-0.926 -2.11,-0.355 -4.664,-0.533 -7.663,-0.533 -1.887,0 -3.6,0.168 -5.136,0.504 -1.536,0.338 -2.859,0.889 -3.97,1.657 -1.111,0.767 -1.962,1.769 -2.554,3.004 -0.593,1.234 -0.889,2.75 -0.889,4.547 0,1.721 0.342,3.181 1.027,4.378 0.685,1.198 1.601,2.153 2.749,2.865 1.146,0.71 2.462,1.225 3.943,1.543 1.48,0.318 3.016,0.477 4.608,0.477 1.073,0 2.027,-0.047 2.86,-0.14 0.833,-0.094 1.507,-0.217 2.026,-0.366 V 12.8 c 0,1.422 -0.425,2.563 -1.276,3.424 -0.853,0.861 -2.333,1.292 -4.443,1.292 -1.407,0 -2.795,-0.104 -4.164,-0.31 -1.37,-0.206 -2.554,-0.495 -3.554,-0.87 l -1.056,6.737 c 0.481,0.149 1.084,0.309 1.806,0.478 0.721,0.168 1.507,0.318 2.36,0.449 0.851,0.13 1.748,0.243 2.693,0.336 0.944,0.094 1.896,0.141 2.859,0.141"
         style="fill:#0065b1;fill-opacity:1;fill-rule:nonzero;stroke:none"
         transform="matrix(1.3333333,0,0,-1.3333333,518.27621,1027.2022)"
         clip-path="url(#clipPath9)" />
      <path
         id="path10"
         d="m 0,0 c -1.148,0 -2.148,0.383 -2.999,1.151 -0.852,0.767 -1.276,1.805 -1.276,3.115 0,1.31 0.424,2.35 1.276,3.117 C -2.148,8.149 -1.148,8.534 0,8.534 1.148,8.534 2.146,8.149 2.999,7.383 3.849,6.616 4.276,5.576 4.276,4.266 4.276,2.956 3.849,1.918 2.999,1.151 2.146,0.383 1.148,0 0,0 m -1.832,-33.797 h -8.273 v 29.531 h 8.273 z M -12.383,0 c -1.148,0 -2.146,0.383 -2.999,1.151 -0.851,0.767 -1.276,1.805 -1.276,3.115 0,1.31 0.425,2.35 1.276,3.117 0.853,0.766 1.851,1.151 2.999,1.151 1.147,0 2.147,-0.385 2.998,-1.151 0.853,-0.767 1.278,-1.807 1.278,-3.117 0,-1.31 -0.425,-2.348 -1.278,-3.115 C -10.236,0.383 -11.236,0 -12.383,0"
         style="fill:#0065b1;fill-opacity:1;fill-rule:nonzero;stroke:none"
         transform="matrix(1.3333333,0,0,-1.3333333,556.99581,989.92515)"
         clip-path="url(#clipPath11)" />
      <path
         id="path12"
         d="M 0,0 H -8.273 V 11.677 H -16.88 V 0 h -8.274 v 29.531 h 8.274 V 18.527 h 8.607 V 29.531 H 0 Z"
         style="fill:#0065b1;fill-opacity:1;fill-rule:nonzero;stroke:none"
         transform="matrix(1.3333333,0,0,-1.3333333,597.64141,1034.9879)"
         clip-path="url(#clipPath13)" />
      <path
         id="path14"
         d="m 0,0 c 0,2.135 0.342,4.145 1.028,6.035 0.684,1.891 1.674,3.538 2.971,4.942 1.295,1.403 2.868,2.516 4.719,3.339 1.851,0.823 3.96,1.235 6.33,1.235 1.555,0 2.98,-0.14 4.275,-0.421 1.296,-0.28 2.554,-0.682 3.777,-1.206 L 21.379,7.243 c -0.778,0.3 -1.63,0.561 -2.556,0.786 -0.925,0.224 -1.962,0.337 -3.108,0.337 -2.444,0 -4.268,-0.768 -5.471,-2.302 C 9.041,4.529 8.44,2.507 8.44,0 c 0,-2.658 0.564,-4.715 1.695,-6.175 1.128,-1.46 3.099,-2.189 5.912,-2.189 1,0 2.073,0.092 3.221,0.281 1.147,0.187 2.202,0.485 3.165,0.897 l 1.167,-6.849 c -0.964,-0.412 -2.166,-0.766 -3.61,-1.066 -1.443,-0.3 -3.035,-0.449 -4.775,-0.449 -2.665,0 -4.962,0.402 -6.886,1.206 -1.925,0.804 -3.507,1.899 -4.747,3.285 C 2.341,-9.675 1.434,-8.037 0.861,-6.146 0.286,-4.257 0,-2.208 0,0"
         style="fill:#0065b1;fill-opacity:1;fill-rule:nonzero;stroke:none"
         transform="matrix(1.3333333,0,0,-1.3333333,605.33941,1015.3015)"
         clip-path="url(#clipPath15)" />
      <path
         id="path16"
         d="m 0,0 c 1.518,0 2.712,0.289 3.582,0.87 0.87,0.58 1.304,1.525 1.304,2.835 0,0.674 -0.148,1.244 -0.443,1.712 C 4.146,5.884 3.738,6.259 3.221,6.539 2.702,6.82 2.101,7.018 1.417,7.13 0.731,7.241 0,7.298 -0.778,7.298 -1.332,7.298 -1.943,7.26 -2.61,7.186 -3.276,7.11 -3.775,7.035 -4.108,6.961 V 0.224 C -3.664,0.149 -3.073,0.092 -2.332,0.055 -1.592,0.017 -0.814,0 0,0 m -4.108,13.193 c 0.517,0.149 1.193,0.271 2.026,0.364 0.833,0.094 1.785,0.14 2.86,0.14 1.74,0 3.359,-0.206 4.858,-0.617 1.5,-0.412 2.804,-1.038 3.915,-1.88 1.11,-0.842 1.98,-1.909 2.61,-3.2 0.629,-1.291 0.944,-2.798 0.944,-4.519 0,-1.722 -0.296,-3.211 -0.888,-4.464 C 11.624,-2.237 10.772,-3.266 9.662,-4.07 8.551,-4.876 7.228,-5.474 5.692,-5.867 4.155,-6.26 2.443,-6.456 0.556,-6.456 c -2.443,0 -4.683,0.121 -6.72,0.364 -2.035,0.244 -4.108,0.627 -6.218,1.152 v 28.632 h 8.274 z"
         style="fill:#0065b1;fill-opacity:1;fill-rule:nonzero;stroke:none"
         transform="matrix(1.3333333,0,0,-1.3333333,659.90515,1027.2022)"
         clip-path="url(#clipPath17)" />
      <path
         id="path18"
         d="M 0,0 C 0.793,0.787 1.645,1.646 2.557,2.578 3.468,3.509 4.35,4.433 5.205,5.345 6.06,6.259 6.873,7.149 7.642,8.019 8.411,8.888 9.101,9.648 9.716,10.301 H 19.768 C 19.034,9.507 18.12,8.531 17.028,7.372 15.934,6.214 14.776,5.007 13.556,3.753 12.333,2.499 11.103,1.254 9.863,0.021 8.622,-1.215 7.455,-2.309 6.357,-3.257 c 1.107,-0.866 2.286,-1.937 3.541,-3.215 1.253,-1.278 2.482,-2.646 3.687,-4.104 1.205,-1.458 2.352,-2.937 3.441,-4.436 1.09,-1.5 2.021,-2.905 2.797,-4.218 h -9.418 c -0.668,1.014 -1.43,2.072 -2.283,3.18 -0.853,1.107 -1.737,2.198 -2.653,3.274 C 4.554,-11.7 3.62,-10.692 2.665,-9.75 1.712,-8.809 0.822,-7.999 0,-7.32 V -19.23 H -8.273 V 10.301 H 0 Z"
         style="fill:#0065b1;fill-opacity:1;fill-rule:nonzero;stroke:none"
         transform="matrix(1.3333333,0,0,-1.3333333,695.36941,1009.3483)"
         clip-path="url(#clipPath19)" />
      <path
         id="path20"
         d="m 0,0 c 0.813,0 1.591,0.017 2.332,0.055 0.74,0.037 1.332,0.094 1.776,0.169 V 6.569 C 3.775,6.643 3.275,6.718 2.61,6.792 1.943,6.867 1.332,6.905 0.776,6.905 0,6.905 -0.732,6.858 -1.417,6.765 -2.102,6.671 -2.703,6.493 -3.221,6.231 -3.74,5.969 -4.146,5.614 -4.443,5.165 -4.74,4.715 -4.888,4.153 -4.888,3.481 -4.888,2.17 -4.452,1.263 -3.582,0.757 -2.712,0.253 -1.519,0 0,0 m -0.667,24.477 c 2.443,0 4.478,-0.281 6.109,-0.842 1.628,-0.562 2.932,-1.367 3.913,-2.414 0.981,-1.048 1.676,-2.322 2.084,-3.817 0.406,-1.498 0.609,-3.164 0.609,-4.998 V -4.997 c -1.184,-0.262 -2.832,-0.57 -4.941,-0.926 -2.11,-0.355 -4.664,-0.533 -7.663,-0.533 -1.887,0 -3.6,0.168 -5.136,0.504 -1.536,0.338 -2.859,0.889 -3.97,1.657 -1.111,0.767 -1.962,1.769 -2.554,3.004 -0.593,1.234 -0.889,2.75 -0.889,4.547 0,1.721 0.342,3.181 1.027,4.378 0.685,1.198 1.601,2.153 2.749,2.865 1.146,0.71 2.462,1.225 3.943,1.543 1.48,0.318 3.016,0.477 4.608,0.477 1.073,0 2.027,-0.047 2.86,-0.14 0.833,-0.094 1.507,-0.217 2.026,-0.366 V 12.8 c 0,1.422 -0.425,2.563 -1.276,3.424 -0.852,0.861 -2.333,1.292 -4.443,1.292 -1.407,0 -2.795,-0.104 -4.164,-0.31 -1.37,-0.206 -2.554,-0.495 -3.554,-0.87 l -1.056,6.737 c 0.481,0.149 1.084,0.309 1.806,0.478 0.721,0.168 1.507,0.318 2.36,0.449 0.85,0.13 1.748,0.243 2.693,0.336 0.944,0.094 1.896,0.141 2.859,0.141"
         style="fill:#0065b1;fill-opacity:1;fill-rule:nonzero;stroke:none"
         transform="matrix(1.3333333,0,0,-1.3333333,741.05021,1027.2022)"
         clip-path="url(#clipPath21)" />
      <path
         id="path22"
         d="m 0,0 v -32.438 h -7.222 v 26.26 h -11.945 v -26.26 h -7.222 V 0 Z"
         style="fill:#0065b1;fill-opacity:1;fill-rule:nonzero;stroke:none"
         transform="matrix(1.3333333,0,0,-1.3333333,407.05288,1057.6099)"
         clip-path="url(#clipPath23)" />
      <path
         id="path24"
         d="m 0,0 c 0,2.153 -0.478,3.877 -1.434,5.172 -0.958,1.296 -2.377,1.943 -4.26,1.943 -0.617,0 -1.189,-0.023 -1.713,-0.07 C -7.933,6.999 -8.364,6.943 -8.703,6.882 V -5.711 c 0.431,-0.28 0.995,-0.514 1.69,-0.701 0.694,-0.188 1.396,-0.281 2.107,-0.281 C -1.636,-6.693 0,-4.462 0,0 M 7.037,0.189 C 7.037,-1.716 6.806,-3.447 6.342,-5.007 5.88,-6.569 5.2,-7.91 4.306,-9.034 3.411,-10.157 2.3,-11.031 0.972,-11.655 c -1.327,-0.623 -2.855,-0.936 -4.583,-0.936 -0.956,0 -1.851,0.094 -2.684,0.281 -0.834,0.187 -1.638,0.452 -2.408,0.795 v -9.267 h -6.898 v 32.437 c 0.617,0.189 1.326,0.367 2.129,0.539 0.802,0.172 1.643,0.319 2.523,0.445 0.88,0.124 1.775,0.225 2.686,0.304 0.909,0.078 1.782,0.117 2.615,0.117 2.006,0 3.797,-0.304 5.37,-0.912 C 1.297,11.538 2.623,10.68 3.703,9.573 4.784,8.465 5.61,7.115 6.181,5.523 6.752,3.933 7.037,2.153 7.037,0.189"
         style="fill:#0065b1;fill-opacity:1;fill-rule:nonzero;stroke:none"
         transform="matrix(1.3333333,0,0,-1.3333333,436.43528,1084.6959)"
         clip-path="url(#clipPath25)" />
      <path
         id="path26"
         d="M 0,0 C -0.031,0.594 -0.132,1.171 -0.301,1.732 -0.471,2.294 -0.734,2.792 -1.088,3.23 -1.443,3.667 -1.89,4.026 -2.43,4.307 -2.971,4.588 -3.642,4.728 -4.445,4.728 -5.216,4.728 -5.879,4.595 -6.434,4.331 -6.99,4.064 -7.453,3.714 -7.823,3.276 -8.195,2.839 -8.48,2.333 -8.68,1.756 -8.882,1.178 -9.028,0.594 -9.12,0 Z m -16.203,-2.668 c 0,2.184 0.331,4.096 0.995,5.734 0.664,1.639 1.535,3.003 2.616,4.096 1.08,1.092 2.321,1.92 3.726,2.481 1.404,0.562 2.848,0.843 4.329,0.843 3.457,0 6.188,-1.069 8.195,-3.207 C 5.664,5.142 6.667,1.997 6.667,-2.152 6.667,-2.559 6.651,-3.003 6.62,-3.487 6.589,-3.971 6.559,-4.399 6.528,-4.773 H -9.12 c 0.153,-1.436 0.817,-2.575 1.991,-3.417 1.173,-0.844 2.746,-1.265 4.723,-1.265 1.264,0 2.505,0.117 3.726,0.351 1.218,0.234 2.214,0.522 2.986,0.867 l 0.925,-5.664 c -0.37,-0.188 -0.864,-0.375 -1.481,-0.563 -0.617,-0.187 -1.304,-0.351 -2.06,-0.491 -0.757,-0.14 -1.567,-0.257 -2.43,-0.351 -0.865,-0.093 -1.729,-0.14 -2.593,-0.14 -2.192,0 -4.097,0.327 -5.718,0.982 -1.62,0.657 -2.962,1.553 -4.028,2.692 -1.064,1.139 -1.851,2.488 -2.361,4.05 -0.509,1.56 -0.763,3.244 -0.763,5.054"
         style="fill:#0065b1;fill-opacity:1;fill-rule:nonzero;stroke:none"
         transform="matrix(1.3333333,0,0,-1.3333333,472.29715,1081.1385)"
         clip-path="url(#clipPath27)" />
      <path
         id="path28"
         d="m 0,0 c -0.061,-1.094 -0.123,-2.282 -0.186,-3.563 -0.061,-1.282 -0.115,-2.57 -0.162,-3.868 -0.045,-1.297 -0.093,-2.533 -0.139,-3.704 -0.047,-1.172 -0.086,-2.196 -0.115,-3.071 h -6.714 c 0.062,1.716 0.162,3.652 0.301,5.804 0.139,2.153 0.293,4.345 0.462,6.577 0.17,2.23 0.356,4.407 0.556,6.53 0.202,2.121 0.395,4.025 0.579,5.71 H 0.323 C 1.654,8.234 2.877,5.975 3.991,3.639 5.107,1.303 6.284,-1.267 7.522,-4.072 c 1.301,2.99 2.57,5.755 3.809,8.294 1.238,2.54 2.353,4.604 3.343,6.193 h 5.834 c 0.216,-1.685 0.423,-3.589 0.625,-5.71 0.2,-2.123 0.386,-4.3 0.556,-6.53 0.169,-2.232 0.316,-4.424 0.44,-6.577 0.123,-2.152 0.215,-4.088 0.278,-5.804 h -6.853 c -0.061,2.438 -0.146,4.859 -0.256,7.267 -0.108,2.407 -0.209,4.734 -0.301,6.986 L 9.89,-11.304 H 5.108 Z"
         style="fill:#0065b1;fill-opacity:1;fill-rule:nonzero;stroke:none"
         transform="matrix(1.3333333,0,0,-1.3333333,496.74381,1081.9182)"
         clip-path="url(#clipPath29)" />
      <path
         id="path30"
         d="m 0,0 c 0.063,-0.44 0.11,-0.896 0.14,-1.367 0.031,-0.471 0.047,-0.816 0.047,-1.035 0,-2.105 -0.373,-4.107 -1.118,-6.006 -0.746,-1.901 -1.663,-3.51 -2.749,-4.829 l -4.892,1.132 c 0.59,1.349 1.063,2.873 1.421,4.568 0.357,1.696 0.536,3.313 0.536,4.851 v 0.401 c 0,0.205 -0.008,0.44 -0.024,0.706 -0.016,0.268 -0.031,0.543 -0.045,0.825 -0.016,0.282 -0.04,0.533 -0.07,0.754 z"
         style="fill:#0065b1;fill-opacity:1;fill-rule:nonzero;stroke:none"
         transform="matrix(1.3333333,0,0,-1.3333333,541.94301,1052.6879)"
         clip-path="url(#clipPath31)" />
      <path
         id="path32"
         d="m 0,0 c 0,1.996 0.309,3.791 0.927,5.382 0.617,1.592 1.481,2.941 2.592,4.049 1.111,1.107 2.437,1.949 3.981,2.528 1.544,0.576 3.256,0.866 5.139,0.866 1.205,0 2.455,-0.11 3.75,-0.328 1.297,-0.219 2.639,-0.577 4.028,-1.076 L 19.12,6.038 C 18.103,6.349 17.121,6.607 16.181,6.81 15.238,7.012 14.183,7.114 13.01,7.114 11.436,7.114 10.101,6.787 9.004,6.132 7.909,5.475 7.238,4.275 6.991,2.526 h 9.214 V -2.481 H 6.944 c 0.123,-0.906 0.379,-1.655 0.765,-2.247 0.385,-0.594 0.864,-1.076 1.434,-1.452 0.572,-0.374 1.212,-0.639 1.923,-0.795 0.709,-0.157 1.45,-0.234 2.222,-0.234 1.079,0 2.222,0.124 3.426,0.374 1.203,0.25 2.252,0.531 3.147,0.842 l 1.297,-5.475 c -1.575,-0.593 -3.017,-0.998 -4.329,-1.218 -1.313,-0.218 -2.754,-0.327 -4.329,-0.327 -1.851,0 -3.541,0.289 -5.069,0.865 -1.527,0.578 -2.84,1.412 -3.935,2.505 C 2.401,-8.551 1.544,-7.193 0.927,-5.57 0.309,-3.949 0,-2.092 0,0"
         style="fill:#0065b1;fill-opacity:1;fill-rule:nonzero;stroke:none"
         transform="matrix(1.3333333,0,0,-1.3333333,546.15755,1084.2574)"
         clip-path="url(#clipPath33)" />
      <path
         id="path34"
         d="m 0,0 c 0,2.153 -0.478,3.877 -1.434,5.172 -0.958,1.296 -2.377,1.943 -4.26,1.943 -0.617,0 -1.189,-0.023 -1.712,-0.07 C -7.933,6.999 -8.364,6.943 -8.703,6.882 V -5.711 c 0.431,-0.28 0.995,-0.514 1.69,-0.701 0.694,-0.188 1.396,-0.281 2.107,-0.281 C -1.636,-6.693 0,-4.462 0,0 M 7.037,0.189 C 7.037,-1.716 6.806,-3.447 6.342,-5.007 5.88,-6.569 5.2,-7.91 4.306,-9.034 3.411,-10.157 2.3,-11.031 0.972,-11.655 c -1.327,-0.623 -2.855,-0.936 -4.583,-0.936 -0.956,0 -1.851,0.094 -2.684,0.281 -0.834,0.187 -1.638,0.452 -2.408,0.795 v -9.267 h -6.898 v 32.437 c 0.617,0.189 1.326,0.367 2.129,0.539 0.802,0.172 1.643,0.319 2.523,0.445 0.88,0.124 1.775,0.225 2.686,0.304 0.909,0.078 1.782,0.117 2.615,0.117 2.006,0 3.797,-0.304 5.37,-0.912 C 1.297,11.538 2.623,10.68 3.703,9.573 4.784,8.465 5.61,7.115 6.181,5.523 6.752,3.933 7.037,2.153 7.037,0.189"
         style="fill:#0065b1;fill-opacity:1;fill-rule:nonzero;stroke:none"
         transform="matrix(1.3333333,0,0,-1.3333333,600.60248,1084.6959)"
         clip-path="url(#clipPath35)" />
      <path
         id="path36"
         d="m 469.88,390.543 h 13.426 v -6.319 H 469.88 Z"
         style="fill:#0065b1;fill-opacity:1;fill-rule:nonzero;stroke:none"
         transform="matrix(1.3333333,0,0,-1.3333333,-11.338587,1598.7414)"
         clip-path="url(#clipPath37)" />
      <path
         id="path38"
         d="m 0,0 c -0.092,-2.091 -0.208,-4.189 -0.346,-6.295 -0.139,-2.107 -0.388,-4.142 -0.742,-6.109 -0.355,-1.966 -0.864,-3.807 -1.528,-5.523 -0.663,-1.716 -1.574,-3.23 -2.731,-4.54 -1.158,-1.311 -2.601,-2.356 -4.329,-3.137 -1.729,-0.779 -3.842,-1.216 -6.342,-1.31 l -0.788,6.366 c 2.223,0.25 3.936,0.82 5.139,1.709 1.205,0.888 2.114,2.254 2.733,4.095 0.77,2.278 1.318,5.219 1.643,8.823 0.323,3.605 0.485,7.637 0.485,12.099 H 15.092 V -26.259 H 7.87 V 0 Z"
         style="fill:#0065b1;fill-opacity:1;fill-rule:nonzero;stroke:none"
         transform="matrix(1.3333333,0,0,-1.3333333,657.57381,1065.8478)"
         clip-path="url(#clipPath39)" />
      <path
         id="path40"
         d="m 530.11,373.411 h -6.898 v 24.622 h 6.898 z m 0.648,31.736 c 0,-1.279 -0.41,-2.287 -1.227,-3.019 -0.819,-0.734 -1.782,-1.1 -2.893,-1.1 -1.111,0 -2.076,0.366 -2.894,1.1 -0.818,0.732 -1.226,1.74 -1.226,3.019 0,1.279 0.408,2.286 1.226,3.019 0.818,0.734 1.783,1.101 2.894,1.101 1.111,0 2.074,-0.367 2.893,-1.101 0.817,-0.733 1.227,-1.74 1.227,-3.019"
         style="fill:#0065b1;fill-opacity:1;fill-rule:nonzero;stroke:none"
         transform="matrix(1.3333333,0,0,-1.3333333,-11.338587,1598.7414)"
         clip-path="url(#clipPath41)" />
      <path
         id="path42"
         d="m 0,0 h -10.37 v -18.911 h -6.898 V 5.711 H 0 Z"
         style="fill:#0065b1;fill-opacity:1;fill-rule:nonzero;stroke:none"
         transform="matrix(1.3333333,0,0,-1.3333333,726.45941,1075.6453)"
         clip-path="url(#clipPath43)" />
      <path
         id="path44"
         d="m 0,0 c 0.678,0 1.326,0.015 1.945,0.047 0.616,0.031 1.111,0.077 1.48,0.14 v 5.29 C 3.148,5.538 2.731,5.601 2.175,5.664 1.62,5.725 1.111,5.757 0.648,5.757 0,5.757 -0.611,5.718 -1.181,5.64 -1.753,5.561 -2.254,5.414 -2.686,5.196 -3.118,4.977 -3.458,4.681 -3.705,4.306 -3.952,3.931 -4.075,3.464 -4.075,2.902 -4.075,1.81 -3.712,1.053 -2.987,0.632 -2.262,0.211 -1.266,0 0,0 m -0.555,20.408 c 2.036,0 3.733,-0.234 5.092,-0.702 1.358,-0.468 2.446,-1.14 3.263,-2.013 0.817,-0.874 1.396,-1.935 1.737,-3.183 0.339,-1.248 0.508,-2.637 0.508,-4.165 V -4.167 C 9.057,-4.384 7.684,-4.642 5.925,-4.939 4.167,-5.234 2.037,-5.383 -0.463,-5.383 c -1.575,0 -3.002,0.14 -4.283,0.421 -1.282,0.281 -2.384,0.741 -3.31,1.382 -0.926,0.639 -1.637,1.473 -2.13,2.504 -0.494,1.029 -0.741,2.292 -0.741,3.791 0,1.434 0.285,2.652 0.857,3.651 0.571,0.998 1.335,1.793 2.292,2.387 0.956,0.592 2.051,1.022 3.287,1.287 1.234,0.264 2.514,0.399 3.842,0.399 0.895,0 1.69,-0.04 2.384,-0.117 0.695,-0.079 1.258,-0.181 1.69,-0.306 v 0.657 c 0,1.185 -0.355,2.136 -1.064,2.855 -0.71,0.716 -1.944,1.076 -3.705,1.076 -1.172,0 -2.33,-0.086 -3.472,-0.257 -1.142,-0.173 -2.129,-0.414 -2.962,-0.726 l -0.88,5.617 c 0.401,0.125 0.902,0.258 1.504,0.398 0.603,0.14 1.258,0.265 1.968,0.374 0.709,0.109 1.458,0.202 2.246,0.281 0.786,0.078 1.58,0.117 2.385,0.117"
         style="fill:#0065b1;fill-opacity:1;fill-rule:nonzero;stroke:none"
         transform="matrix(1.3333333,0,0,-1.3333333,743.12621,1094.3686)"
         clip-path="url(#clipPath45)" />
      <path
         id="path52"
         d="m 456.512,581.8 c -97.228,-45.278 -99.018,-75.707 -99.018,-75.707 v 0 l 10.403,-4.617 c 6.295,-2.617 15.023,-5.57 21.502,-7.697 v 0 c 6.593,-1.613 14.929,-4.15 21.627,-5.256 v 0 c 6.764,-0.592 15.815,-1.035 22.601,-1.11 v 0 c 6.808,0.446 15.861,1.399 22.607,2.37 v 0 c 6.722,1.506 15.609,3.871 22.192,5.9 v 0 c 6.513,2.59 11.799,7.842 18.087,10.939 v 0 c 6.176,3.692 12.192,7.087 17.113,12.338 v 0 c 37.168,39.652 64.872,95.119 58.901,151.542 v 0 c 0,0 -68.54,-66.594 -116.015,-88.702"
         transform="matrix(1.3333333,0,0,-1.3333333,-11.338587,1598.7414)"
         style="fill:url(#linearGradient52);stroke:none" />
      <path
         id="path59"
         d="m 452.09,553.216 c -20.736,-37.08 -55.83,-65.294 -94.596,-47.123 v 0 c 2.386,-1.264 15.334,-8.199 31.538,-12.891 v 0 c 33.834,-9.798 59.891,-4.656 67.383,-3.281 v 0 c 7.486,1.375 14.906,3.341 22.187,5.905 v 0 c 7.278,2.562 14.416,5.722 21.344,9.49 v 0 c 6.178,3.688 14.212,8.954 20.072,13.13 v 0 c 47.871,37.145 64.555,97.455 52.45,153.127 v 0 c -0.673,3.097 -3.15,4.829 -7.15,4.83 v 0 c -17.087,0.002 -62,-31.579 -113.228,-123.187"
         transform="matrix(1.3333333,0,0,-1.3333333,-11.338587,1598.7414)"
         style="fill:url(#linearGradient59);stroke:none" />
      <path
         id="path67"
         d="m 415.613,782.221 c -6.756,-0.952 -15.712,-2.576 -22.368,-4.045 v 0 c -6.591,-2.003 -15.278,-5.021 -21.693,-7.535 v 0 c -6.301,-3.068 -11.182,-8.697 -17.221,-12.254 v 0 c -5.885,-4.142 -11.632,-7.975 -16.149,-13.577 v 0 C 304.069,702.501 280.567,645.128 290.72,589.306 v 0 c 0,0 63.395,71.507 109.094,97.088 v 0 c 93.588,52.385 93.111,82.863 93.111,82.863 v 0 l -10.718,3.83 c -6.472,2.142 -15.396,4.436 -22.015,6.076 v 0 c -6.695,1.119 -15.197,3.028 -21.959,3.633 v 0 c -0.949,0.012 -1.945,0.018 -2.971,0.018 v 0 c -6.309,0 -13.824,-0.223 -19.649,-0.593"
         transform="matrix(1.3333333,0,0,-1.3333333,-11.338587,1598.7414)"
         style="fill:url(#linearGradient67);stroke:none" />
      <path
         id="path74"
         d="m 393.074,778.024 c -7.363,-1.928 -14.615,-4.441 -21.685,-7.539 v 0 c -7.068,-3.096 -13.951,-6.779 -20.58,-11.051 v 0 c -5.886,-4.138 -13.506,-9.987 -19.039,-14.588 v 0 C 286.796,704.244 274.646,642.858 290.858,588.242 v 0 c 4.756,-16.021 56.604,9.54 111.24,126.984 v 0 c 17.919,38.521 50.816,69.267 90.827,54.031 v 0 c -2.474,1.083 -15.902,7.035 -32.409,10.509 v 0 c -11.205,2.358 -21.471,3.203 -30.481,3.203 v 0 c -18.705,-0.001 -31.987,-3.643 -36.961,-4.945"
         transform="matrix(1.3333333,0,0,-1.3333333,-11.338587,1598.7414)"
         style="fill:url(#linearGradient74);stroke:none" />
      <path
         id="path75"
         d="m 0,0 c -0.113,-1.994 -0.272,-4.652 -0.332,-6.648 1.832,1.776 4.271,4.147 6.116,5.91 2.902,-0.421 6.773,-0.974 9.669,-1.435 -1.908,1.377 -4.45,3.215 -6.365,4.581 1.324,1.253 3.088,2.924 4.414,4.174 C 11.158,6.056 8.033,5.359 5.696,4.804 4.365,5.737 2.588,6.98 1.261,7.918 0.975,6.588 0.583,4.815 0.376,3.47 -2.387,2.72 -6.074,1.727 -8.828,0.942 -6.179,0.668 -2.645,0.311 0,0"
         style="fill:#ffffff;fill-opacity:1;fill-rule:nonzero;stroke:none"
         transform="matrix(1.3333333,0,0,-1.3333333,548.99061,569.79168)"
         clip-path="url(#clipPath76)" />
      <path
         id="path77"
         d="m 0,0 c 1.263,-3.12 2.975,-7.273 4.401,-10.322 1.304,4.161 3.059,9.705 4.538,13.807 4.491,1.587 10.485,3.692 15.012,5.175 -3.542,0.817 -8.265,1.906 -11.811,2.708 1.648,3.456 3.86,8.06 5.683,11.427 -3.674,-2.961 -8.562,-6.922 -12.144,-9.991 -2.663,0.581 -6.212,1.357 -8.873,1.945 0.325,-2.65 0.8,-6.186 1.372,-8.794 -3.55,-3.541 -8.27,-8.278 -11.696,-11.939 C -9.481,-4.148 -4.09,-1.714 0,0"
         style="fill:#ffffff;fill-opacity:1;fill-rule:nonzero;stroke:none"
         transform="matrix(1.3333333,0,0,-1.3333333,459.95181,625.67848)"
         clip-path="url(#clipPath78)" />
      <path
         id="path79"
         d="m 0,0 c 0.494,-2.636 1.162,-6.151 1.788,-8.758 1.803,2.991 4.204,6.982 6.095,9.919 3.799,0.478 8.865,1.116 12.671,1.531 -2.686,1.177 -6.268,2.746 -8.96,3.912 1.692,2.268 3.945,5.296 5.723,7.496 C 14.113,12.5 9.842,10.365 6.666,8.712 4.635,9.573 1.927,10.721 -0.1,11.591 -0.274,9.571 -0.493,6.869 -0.463,4.841 -4.09,2.752 -8.926,-0.036 -12.509,-2.201 -8.76,-1.519 -3.761,-0.61 0,0"
         style="fill:#ffffff;fill-opacity:1;fill-rule:nonzero;stroke:none"
         transform="matrix(1.3333333,0,0,-1.3333333,505.18768,588.17968)"
         clip-path="url(#clipPath80)" />
      <path
         id="path81"
         d="M 0,0 C 1.249,5.462 3.084,12.71 4.666,18.086 0.684,13.174 -4.496,6.518 -8.237,1.42 c -3.272,0.535 -7.634,1.246 -10.906,1.776 0.917,-3.932 2.368,-9.126 3.648,-12.955 -3.159,-5.637 -7.194,-13.254 -10.017,-19.066 4.043,3.243 9.549,7.427 13.772,10.432 2.368,-4.489 5.663,-10.402 8.248,-14.769 0.307,6.295 0.885,14.684 1.525,20.955 5.17,2.908 12.138,6.654 17.427,9.339 C 10.825,-1.995 4.641,-0.845 0,0"
         style="fill:#ffffff;fill-opacity:1;fill-rule:nonzero;stroke:none"
         transform="matrix(1.3333333,0,0,-1.3333333,433.08848,664.18675)"
         clip-path="url(#clipPath82)" />
      <path
         id="path83"
         d="M 0,0 C 6.878,-11.02 7.009,-11.231 11.918,-17.795 8.41,-3.141 8.2,-2.264 6.985,6.881 14.894,13.4 15.367,13.79 21.142,17.619 11.68,20.665 10.464,21.057 5.642,22.724 5.499,38.243 5.49,39.172 6.391,48.436 0.448,34.635 0.216,34.096 -2.378,25.598 -8.884,28.156 -9.415,28.365 -12.346,29.817 -9.052,18.553 -8.924,18.114 -5.878,11.322 -7.917,-2.294 -8.039,-3.109 -8.188,-11.219 -3.889,-4.458 -3.632,-4.054 0,0"
         style="fill:#ffffff;fill-opacity:1;fill-rule:nonzero;stroke:none"
         transform="matrix(1.3333333,0,0,-1.3333333,395.36968,771.88101)"
         clip-path="url(#clipPath84)" />
      <path
         id="path85"
         d="m 0,0 c 0.632,-1.321 1.496,-3.073 2.087,-4.412 -1.905,0.682 -4.449,1.585 -6.348,2.284 -1.818,-0.88 -4.239,-2.059 -6.063,-2.925 0.501,1.375 1.166,3.21 1.674,4.583 -2.303,0.914 -5.379,2.121 -7.674,3.057 2.687,0.095 6.271,0.204 8.957,0.332 0.722,1.881 1.685,4.389 2.407,6.27 C -3.975,7.404 -2.654,5.03 -1.686,3.236 1.084,3.437 4.779,3.687 7.546,3.923 5.284,2.743 2.273,1.159 0,0"
         style="fill:#ffffff;fill-opacity:1;fill-rule:nonzero;stroke:none"
         transform="matrix(1.3333333,0,0,-1.3333333,573.70048,934.46461)"
         clip-path="url(#clipPath86)" />
      <path
         id="path87"
         d="m 0,0 c -2.382,-2.085 -5.548,-4.879 -7.977,-6.909 0.48,2.185 1.135,5.097 1.499,7.304 -3.246,0.273 -7.575,0.63 -10.816,0.95 3.451,1.264 8.055,2.943 11.489,4.251 0.225,2.803 0.538,6.541 0.675,9.349 2.041,-1.919 4.768,-4.473 6.782,-6.42 3.707,1.533 8.653,3.567 12.336,5.157 C 11.38,11.033 7.914,7.488 5.249,4.897 6.663,3.341 8.564,1.28 9.914,-0.332 6.939,-0.244 2.809,0.984 0,0"
         style="fill:#ffffff;fill-opacity:1;fill-rule:nonzero;stroke:none"
         transform="matrix(1.3333333,0,0,-1.3333333,610.68968,924.39555)"
         clip-path="url(#clipPath88)" />
      <path
         id="path89"
         d="m 0,0 c -3.147,-3.328 -7.353,-7.757 -10.608,-10.981 0.892,3.325 2.048,7.769 2.743,11.14 -4.102,0.175 -9.572,0.42 -13.67,0.667 4.478,2.076 10.444,4.855 14.88,7.017 0.403,4.033 0.912,9.417 1.148,13.464 2.434,-2.591 5.674,-6.053 8.017,-8.727 4.257,2.394 9.926,5.6 14.107,8.124 C 13.635,16.72 9.643,11.417 6.521,7.541 8.007,5.338 9.98,2.389 11.296,0.08 7.908,0.037 3.389,-0.011 0,0"
         style="fill:#ffffff;fill-opacity:1;fill-rule:nonzero;stroke:none"
         transform="matrix(1.3333333,0,0,-1.3333333,655.40821,896.99861)"
         clip-path="url(#clipPath90)" />
      <path
         id="path91"
         d="m 0,0 c -2.936,-6.02 -7.071,-13.942 -10.344,-19.786 0.115,5.247 -0.014,12.251 -0.297,17.491 -5.76,-0.999 -13.463,-2.208 -19.251,-3.034 5.433,4.356 12.546,10.33 17.771,14.933 -1.152,6.215 -2.892,14.464 -4.333,20.618 4.359,-3.161 10.131,-7.431 14.421,-10.685 C 2.382,24.446 8.075,31.17 12.179,36.342 10.375,29.395 7.686,20.203 5.449,13.383 8.338,10.726 12.095,7.078 14.81,4.243 10.397,2.869 4.469,1.179 0,0"
         style="fill:#ffffff;fill-opacity:1;fill-rule:nonzero;stroke:none"
         transform="matrix(1.3333333,0,0,-1.3333333,701.37995,847.90195)"
         clip-path="url(#clipPath92)" />
      <path
         id="path93"
         d="m 0,0 c -3.471,-14.739 -3.834,-16.279 -7.734,-26.936 0.192,13.312 0.217,15.022 -0.93,25.639 -8.601,-0.873 -9.706,-0.985 -17.262,-1.408 8.509,9.547 9.398,10.545 14.471,17.755 -3.531,13.895 -3.9,15.348 -7.661,25.66 8.094,-7.622 9.338,-8.793 14.44,-14.468 4.582,9.7 5.061,10.714 7.121,17.922 C 3.211,29.764 3.291,28.258 2.464,17.206 7.369,9.454 7.999,8.458 10.353,2.62 5.443,1.121 4.93,0.964 0,0"
         style="fill:#ffffff;fill-opacity:1;fill-rule:nonzero;stroke:none"
         transform="matrix(1.3333333,0,0,-1.3333333,737.85101,775.63848)"
         clip-path="url(#clipPath94)" />
      <path
         id="path98"
         d="m 523.053,733.904 c -2.591,-0.775 -6.044,-1.816 -8.629,-2.611 v 0 c 4.224,-1.748 10.681,-2.883 13.994,-6.033 v 0 c 2.338,-4.484 5.367,-10.515 7.428,-15.134 v 0 c 0.358,3.275 0.757,7.657 0.811,10.952 v 0 c 3.635,-2.105 8.451,-4.971 11.967,-7.269 v 0 c -3.699,4.149 -8.697,9.627 -12.601,13.584 v 0 c -0.724,2.777 -1.796,6.463 -2.871,9.124 v 0 c -1.682,-0.403 -3.922,-0.95 -5.6,-1.372 v 0 c -4.151,3.375 -9.73,7.822 -14.025,11.012 v 0 c 2.957,-3.598 6.822,-8.463 9.526,-12.253 m -28.345,-23.115 c -10.062,-4.87 -11.356,-5.496 -18.488,-9.165 v 0 c 13.637,-2.33 15.062,-2.573 23.762,-4.546 v 0 c 4.431,-13.532 4.793,-14.638 7.197,-24.187 v 0 c 4.392,12.076 4.851,13.337 7.137,20.555 v 0 c 12.652,-3.81 13.685,-4.122 21.276,-7.079 v 0 c -10.341,11.541 -10.745,11.992 -18.047,18.805 v 0 c 2.045,10.026 2.211,10.845 2.695,16.555 v 0 c -8.099,-3.225 -8.946,-3.562 -14.913,-6.123 v 0 c -11.75,8.885 -12.209,9.232 -20.023,14.354 v 0 c 5.627,-10.521 6.087,-11.379 9.404,-19.169 M 447.921,668.5 c -13.301,-5.989 -15.345,-6.91 -26.631,-11.508 v 0 c 15.441,-4.244 29.094,-7.623 29.094,-7.623 v 0 l 5.12,-30.315 13.25,26.076 28.159,-6.072 c 0,0 -11.091,13.347 -19.647,22.986 v 0 c 6.053,13.356 7.144,15.762 11.402,26.788 v 0 c -12.051,-6.44 -13.903,-7.43 -24.514,-12.639 v 0 c -11.459,11.864 -11.679,12.091 -21.194,21.675 v 0 c 2.866,-15.11 3.1,-16.344 4.961,-29.368 m -53.34,-47.32 -23.77,-9.948 26.019,-7.935 6.674,-27.576 10.541,23.506 c 0,0 13.696,-2.738 27.871,-5.092 v 0 c -8.242,8.464 -10.244,10.587 -19.868,20.783 v 0 l 12.025,25.398 -24.235,-12.142 c 0,0 -8.943,10.065 -18.033,21.193 v 0 c 1.141,-12.567 2.776,-28.187 2.776,-28.187 m -45.878,-41.509 c -6.564,-1.984 -6.787,-2.038 -18.39,-4.942 v 0 c 7.174,-2.772 21.869,-7.268 21.869,-7.268 v 0 l 5.988,-20.407 c 0,0 3.125,7.964 7.945,16.87 v 0 c 7.47,-1.682 8.028,-1.78 22.349,-4.252 v 0 c -5.894,4.469 -5.894,4.469 -16.989,13.945 v 0 c 3.198,5.767 6.408,11.527 9.609,17.293 v 0 c -7.067,-2.764 -7.314,-2.851 -20.248,-7.367 v 0 c -5.923,5.807 -5.923,5.807 -16.69,17.89 v 0 c 1.304,-7.589 1.487,-8.39 4.557,-21.762 m -33.816,-19.748 c -3.406,0.638 -7.917,1.653 -11.275,2.51 v 0 c 4.537,-3.465 10.745,-7.877 15.468,-11.083 v 0 c 2.367,-3.752 5.831,-8.561 8.57,-12.05 v 0 c 0.297,1.838 1.014,4.232 1.645,5.982 v 0 c 5.017,-2.642 11.798,-5.996 16.922,-8.424 v 0 c -4.493,3.714 -10.307,8.88 -14.582,12.846 v 0 c 1.641,2.533 3.971,5.82 5.764,8.25 v 0 c -4.334,0.185 -10.109,0.56 -14.433,0.911 v 0 c -4.034,4.813 -9.182,11.424 -12.93,16.462 v 0 c 1.243,-4.683 3.213,-10.844 4.851,-15.404"
         transform="matrix(1.3333333,0,0,-1.3333333,-11.338587,1598.7414)"
         style="fill:url(#linearGradient98);stroke:none" />
    </g>
  </g>
</svg>
